<svg width="185" height="56" viewBox="0 0 185 56" fill="none" xmlns="http://www.w3.org/2000/svg">
<path d="M171.666 0.354492H13.3725C12.8722 0.354492 12.3779 0.354492 11.8788 0.357441C11.4612 0.360021 11.0469 0.368131 10.6249 0.374766C9.71697 0.397251 8.79764 0.453279 7.89087 0.615835C6.97746 0.775811 6.12856 1.04895 5.29698 1.47137C4.48014 1.88975 3.73409 2.43344 3.08866 3.07961C2.43548 3.72578 1.89437 4.47479 1.48079 5.29163C1.05652 6.12174 0.787059 6.97433 0.62782 7.88847C0.463421 8.79193 0.406668 9.70608 0.383446 10.6202C0.370545 11.0386 0.369428 11.4584 0.362793 11.8768V44.1278C0.369428 44.551 0.370545 44.962 0.383446 45.3855C0.406668 46.2997 0.463421 47.2138 0.62782 48.1169C0.787059 49.0314 1.05652 49.8881 1.48079 50.7156C1.89437 51.5284 2.43548 52.277 3.08866 52.9184C3.73409 53.5697 4.48014 54.1119 5.29698 54.5266C6.12856 54.9527 6.97746 55.2222 7.89087 55.3873C8.79764 55.5499 9.71697 55.6033 10.6249 55.6284C11.0469 55.638 11.4612 55.6428 11.8788 55.6428C12.3779 55.6457 12.8722 55.6457 13.3725 55.6457H171.666C172.156 55.6457 172.654 55.6457 173.144 55.6428C173.561 55.6428 173.985 55.638 174.401 55.6284C175.315 55.6033 176.233 55.5499 177.129 55.3873C178.043 55.2222 178.894 54.9527 179.735 54.5266C180.55 54.1119 181.294 53.5697 181.939 52.9184C182.592 52.277 183.133 51.5284 183.554 50.7156C183.97 49.8881 184.243 49.0314 184.398 48.1169C184.567 47.2138 184.619 46.2997 184.652 45.3855C184.656 44.962 184.656 44.551 184.656 44.1278C184.667 43.6317 184.667 43.1388 184.667 42.635V13.3664C184.667 12.8669 184.667 12.3711 184.656 11.8768C184.656 11.4584 184.656 11.0386 184.652 10.6202C184.619 9.70608 184.567 8.79193 184.398 7.88847C184.243 6.97433 183.97 6.12174 183.554 5.29163C183.133 4.47479 182.592 3.72578 181.939 3.07961C181.294 2.43344 180.55 1.88975 179.735 1.47137C178.894 1.04895 178.043 0.775811 177.129 0.615835C176.233 0.453279 175.315 0.397251 174.401 0.374766C173.985 0.368131 173.561 0.360021 173.144 0.357441C172.654 0.354492 172.156 0.354492 171.666 0.354492Z" fill="#B6B6B7"/>
<path d="M11.8533 54.4551C11.4375 54.4551 11.0321 54.4496 10.6196 54.4408C9.85658 54.419 8.95202 54.3766 8.0692 54.2178C7.23615 54.0674 6.49635 53.8222 5.80853 53.4706C5.09711 53.1093 4.4572 52.6431 3.90245 52.0831C3.33737 51.5288 2.87292 50.8922 2.50984 50.1778C2.15634 49.4889 1.91417 48.7495 1.76893 47.9164C1.60269 46.9986 1.55995 46.0671 1.54188 45.3583C1.53341 45.0704 1.52197 44.1124 1.52197 44.1124V11.8802C1.52197 11.8802 1.53377 10.9369 1.54188 10.6597C1.55995 9.9446 1.60269 9.01386 1.76783 8.10524C1.91343 7.26776 2.15562 6.5287 2.50948 5.8372C2.87182 5.12173 3.33664 4.48146 3.89435 3.92965C4.45869 3.36494 5.10079 2.89718 5.80779 2.53447C6.50888 2.17876 7.24757 1.93585 8.06366 1.79246C8.9826 1.62769 9.91407 1.58678 10.6229 1.56871L11.8541 1.55176H173.105L174.351 1.56945C175.051 1.58678 175.98 1.62769 176.887 1.79098C177.709 1.93511 178.453 2.1795 179.165 2.53889C179.865 2.89718 180.506 3.36494 181.067 3.92449C181.623 4.47887 182.091 5.12246 182.46 5.84051C182.814 6.53829 183.053 7.27698 183.19 8.0905C183.352 8.9512 183.4 9.83549 183.429 10.6656C183.433 11.0519 183.433 11.4669 183.433 11.8802C183.444 12.3918 183.444 12.8787 183.444 13.3697V42.6383C183.444 43.1344 183.444 43.6177 183.433 44.1057C183.433 44.5495 183.433 44.9557 183.426 45.3741C183.4 46.1777 183.352 47.0612 183.193 47.9031C183.053 48.7402 182.814 49.4797 182.456 50.1819C182.091 50.8907 181.623 51.5317 181.07 52.0728C180.506 52.6431 179.869 53.1079 179.161 53.4676C178.453 53.8278 177.731 54.0659 176.887 54.2178C176.013 54.3766 175.106 54.419 174.336 54.4408C173.938 54.4496 173.517 54.4551 173.112 54.4551L171.634 54.4581L11.8533 54.4551Z" fill="#030404"/>
<path d="M63.1127 35.4851H67.9448L66.2149 30.8542C65.9768 30.2147 65.7427 29.5081 65.512 28.734C65.3037 29.4185 65.0767 30.1178 64.8312 30.8318L63.1127 35.4851ZM68.7705 37.6834H62.2981L60.7138 42.0131H57.8682L64.2064 25.8438H66.8958L73.3792 42.0131H70.3887L68.7705 37.6834Z" fill="white"/>
<path d="M81.7357 39.06C82.2975 38.3051 82.5783 37.2022 82.5783 35.7514C82.5783 34.4052 82.3458 33.4284 81.8809 32.8221C81.4158 32.2157 80.7965 31.9127 80.0228 31.9127C79.4872 31.9127 78.9925 32.0395 78.5388 32.292C78.085 32.5452 77.6534 32.8836 77.2442 33.3075V39.7574C77.5196 39.8912 77.8395 39.9974 78.2041 40.0752C78.5686 40.1537 78.9295 40.1927 79.2863 40.1927C80.3579 40.1927 81.174 39.8149 81.7357 39.06ZM74.4881 32.9061C74.4881 32.0133 74.4583 31.0314 74.3989 29.9598H76.9877C77.0842 30.4585 77.1513 30.9683 77.1886 31.4888C78.2597 30.3211 79.4872 29.7368 80.871 29.7368C81.6745 29.7368 82.4184 29.9396 83.1029 30.3447C83.787 30.7505 84.3396 31.39 84.7598 32.264C85.1804 33.1383 85.3905 34.2489 85.3905 35.5951C85.3905 37.0013 85.1505 38.2026 84.6706 39.1994C84.1906 40.1964 83.5194 40.9513 82.6565 41.4648C81.7936 41.9779 80.7965 42.2348 79.666 42.2348C78.8473 42.2348 78.0401 42.097 77.2442 41.822V46.7986L74.4881 47.033V32.9061Z" fill="white"/>
<path d="M94.3357 39.06C94.8974 38.3051 95.1783 37.2022 95.1783 35.7514C95.1783 34.4052 94.9457 33.4284 94.4809 32.8221C94.0157 32.2157 93.3965 31.9127 92.6228 31.9127C92.0872 31.9127 91.5925 32.0395 91.1387 32.292C90.6846 32.5452 90.2534 32.8836 89.8442 33.3075V39.7574C90.1195 39.8912 90.4391 39.9974 90.8041 40.0752C91.1682 40.1537 91.5291 40.1927 91.8863 40.1927C92.9575 40.1927 93.7739 39.8149 94.3357 39.06ZM87.0877 32.9061C87.0877 32.0133 87.0579 31.0314 86.9985 29.9598H89.5876C89.6842 30.4585 89.7513 30.9683 89.7885 31.4888C90.8597 30.3211 92.0872 29.7368 93.4709 29.7368C94.2745 29.7368 95.018 29.9396 95.7028 30.3447C96.387 30.7505 96.9395 31.39 97.3601 32.264C97.78 33.1383 97.9904 34.2489 97.9904 35.5951C97.9904 37.0013 97.7501 38.2026 97.2705 39.1994C96.7906 40.1964 96.119 40.9513 95.2565 41.4648C94.3932 41.9779 93.3965 42.2348 92.2656 42.2348C91.4473 42.2348 90.64 42.097 89.8442 41.822V46.7986L87.0877 47.033V32.9061Z" fill="white"/>
<path d="M103.052 41.2462C101.861 40.5883 100.946 39.645 100.307 38.4175C99.6663 37.1901 99.3467 35.7396 99.3467 34.0657C99.3467 32.2507 99.7149 30.7084 100.451 29.4401C101.188 28.1717 102.191 27.2196 103.459 26.5834C104.727 25.9475 106.15 25.6294 107.727 25.6294C108.657 25.6294 109.544 25.7319 110.389 25.9361C111.233 26.141 112.019 26.4215 112.749 26.7787L112.046 28.8989C110.58 28.1997 109.182 27.8499 107.85 27.8499C106.727 27.8499 105.743 28.0899 104.899 28.5698C104.054 29.0497 103.397 29.7545 102.929 30.6845C102.46 31.6145 102.226 32.7376 102.226 34.0543C102.226 35.2077 102.406 36.2306 102.767 37.1233C103.128 38.0157 103.697 38.7227 104.474 39.2432C105.252 39.7641 106.232 40.0243 107.415 40.0243C107.95 40.0243 108.486 39.9797 109.022 39.8905C109.557 39.8013 110.06 39.6712 110.528 39.4998V36.2306H106.79V34.0879H113.206V40.8949C112.284 41.3262 111.315 41.6576 110.299 41.888C109.284 42.1184 108.274 42.2337 107.27 42.2337C105.648 42.2337 104.241 41.9049 103.052 41.2462Z" fill="white"/>
<path d="M121.321 39.7685C121.893 39.4935 122.362 39.1511 122.727 38.7419V36.5104C121.975 36.4285 121.361 36.3876 120.885 36.3876C119.747 36.3876 118.96 36.5715 118.526 36.9402C118.09 37.3077 117.872 37.8045 117.872 38.4293C117.872 39.025 118.03 39.4655 118.347 39.7519C118.663 40.0383 119.092 40.1813 119.635 40.1813C120.186 40.1813 120.747 40.0438 121.321 39.7685ZM122.972 42.0004C122.875 41.5315 122.812 41 122.782 40.4047C122.358 40.9108 121.806 41.3402 121.125 41.6937C120.445 42.0468 119.676 42.2234 118.821 42.2234C118.129 42.2234 117.499 42.0878 116.929 41.8161C116.361 41.5448 115.908 41.1356 115.574 40.5886C115.239 40.042 115.071 39.3744 115.071 38.5856C115.071 37.4179 115.491 36.486 116.332 35.7905C117.173 35.0949 118.575 34.7473 120.539 34.7473C121.276 34.7473 122.005 34.7993 122.727 34.9032V34.6692C122.727 33.6054 122.499 32.856 122.046 32.4203C121.592 31.9853 120.941 31.7678 120.093 31.7678C119.505 31.7678 118.877 31.8534 118.207 32.0244C117.538 32.1958 116.95 32.4 116.444 32.6381L116.009 30.6296C116.5 30.4062 117.147 30.202 117.95 30.0159C118.754 29.8301 119.602 29.7368 120.495 29.7368C121.536 29.7368 122.421 29.8949 123.15 30.2108C123.88 30.5271 124.449 31.0704 124.858 31.8401C125.267 32.6105 125.472 33.6463 125.472 34.9482V39.7349C125.472 40.2337 125.501 40.9889 125.561 42.0004H122.972Z" fill="white"/>
<path d="M127.621 39.1228V24.8953L130.366 24.6719V38.6318C130.366 39.1453 130.453 39.5076 130.628 39.7199C130.802 39.9315 131.08 40.0381 131.459 40.0381C131.63 40.0381 131.872 39.9971 132.184 39.9153L132.508 41.8903C132.247 41.9946 131.93 42.0783 131.554 42.1413C131.178 42.2044 130.823 42.2361 130.488 42.2361C128.576 42.2361 127.621 41.1984 127.621 39.1228Z" fill="white"/>
<path d="M134.475 39.1228V24.8953L137.22 24.6719V38.6318C137.22 39.1453 137.307 39.5076 137.482 39.7199C137.657 39.9315 137.934 40.0381 138.313 40.0381C138.484 40.0381 138.726 39.9971 139.039 39.9153L139.362 41.8903C139.102 41.9946 138.784 42.0783 138.408 42.1413C138.032 42.2044 137.677 42.2361 137.342 42.2361C135.43 42.2361 134.475 41.1984 134.475 39.1228Z" fill="white"/>
<path d="M147.937 34.58C147.882 33.6201 147.642 32.9006 147.211 32.4203C146.78 31.9407 146.201 31.7008 145.482 31.7008C144.782 31.7008 144.2 31.9426 143.735 32.4262C143.271 32.9098 142.965 33.6278 142.825 34.58H147.937ZM150.624 36.3316H142.747C142.873 38.8536 144.074 40.1146 146.352 40.1146C146.916 40.1146 147.495 40.0457 148.088 39.9082C148.678 39.7703 149.246 39.5864 149.788 39.3556L150.392 41.2414C149.043 41.8965 147.532 42.2234 145.851 42.2234C144.568 42.2234 143.492 41.982 142.614 41.4984C141.734 41.0147 141.074 40.3192 140.631 39.4113C140.19 38.5042 139.968 37.4105 139.968 36.1311C139.968 34.7993 140.203 33.6536 140.672 32.6938C141.14 31.7343 141.792 31.0015 142.629 30.4954C143.466 29.9897 144.432 29.7368 145.526 29.7368C146.665 29.7368 147.613 30.003 148.376 30.5349C149.139 31.0664 149.703 31.7752 150.071 32.6602C150.44 33.546 150.624 34.5239 150.624 35.5951V36.3316Z" fill="white"/>
<path d="M152.711 32.9839C152.711 32.3222 152.678 31.3141 152.619 29.9598H155.199C155.243 30.2949 155.284 30.6945 155.328 31.1596C155.368 31.6245 155.394 32.0019 155.409 32.292C155.73 31.7642 156.043 31.3196 156.353 30.9588C156.662 30.5979 157.024 30.3041 157.436 30.077C157.849 29.85 158.317 29.7368 158.848 29.7368C159.272 29.7368 159.633 29.7814 159.939 29.8706L159.593 32.2588C159.327 32.177 159.029 32.1361 158.701 32.1361C158.056 32.1361 157.488 32.3016 157.005 32.6326C156.522 32.9636 156.006 33.5084 155.453 34.2674V42.0004H152.711V32.9839Z" fill="white"/>
<path d="M161.523 46.9309C161.121 46.8605 160.789 46.7805 160.531 46.6913L161.033 44.6828C161.217 44.7344 161.453 44.7849 161.737 44.8332C162.017 44.8818 162.286 44.9058 162.54 44.9058C163.76 44.9058 164.674 44.1206 165.283 42.5511L165.463 42.1047L161.021 29.9639H163.978L166.211 36.7488C166.573 37.9092 166.809 38.7983 166.912 39.4154C167.122 38.5451 167.365 37.6748 167.649 36.8045L169.916 29.9639H172.692L168.265 42.1608C167.848 43.3138 167.395 44.2434 166.912 44.9504C166.429 45.657 165.858 46.1815 165.201 46.524C164.542 46.8657 163.749 47.0371 162.817 47.0371C162.356 47.0371 161.925 47.0021 161.523 46.9309Z" fill="white"/>
<path d="M57.8179 10.4468H62.7307L62.5925 11.6333H59.2577V13.9312H62.4023V15.043H59.2577V17.5886H62.7709L62.65 18.7865H57.8179V10.4468Z" fill="white"/>
<path d="M66.1163 14.5302L63.5246 10.4468H65.1601L66.9169 13.4476L68.7658 10.4468H70.3553L67.7864 14.4786L70.5683 18.7865H68.9096L66.9228 15.5037L64.901 18.7865H63.3115L66.1163 14.5302Z" fill="white"/>
<path d="M75.2387 14.1705C75.5458 13.8922 75.6995 13.4996 75.6995 12.9928C75.6995 12.4782 75.5428 12.1077 75.2302 11.881C74.9173 11.6547 74.4572 11.5412 73.8509 11.5412H73.0676V14.5015C73.4285 14.5593 73.7049 14.5881 73.897 14.5881C74.4842 14.5881 74.9316 14.4491 75.2387 14.1705ZM71.6274 10.4468H73.8737C74.9294 10.4468 75.7378 10.662 76.2985 11.0918C76.8591 11.522 77.1392 12.1442 77.1392 12.9581C77.1392 13.511 77.0136 13.9939 76.7622 14.4067C76.5104 14.8196 76.1602 15.1362 75.7109 15.357C75.2619 15.5778 74.7451 15.688 74.1616 15.688C73.8431 15.688 73.4782 15.65 73.0676 15.573V18.7865H71.6274V10.4468Z" fill="white"/>
<path d="M78.5825 10.4468H80.0223V17.5543H83.4721L83.3512 18.7865H78.5825V10.4468Z" fill="white"/>
<path d="M89.3888 17.3573C89.7921 17.0864 90.0932 16.7141 90.293 16.2397C90.4928 15.7657 90.5927 15.2231 90.5927 14.6127C90.5927 14.0137 90.5042 13.4803 90.3277 13.0114C90.1507 12.5433 89.8687 12.1699 89.481 11.8912C89.0932 11.6133 88.5941 11.474 87.9833 11.474C87.3998 11.474 86.9044 11.6148 86.4975 11.8971C86.0905 12.1795 85.7853 12.5577 85.5818 13.0317C85.3784 13.5061 85.2766 14.0292 85.2766 14.6012C85.2766 15.2043 85.3725 15.7439 85.5645 16.2198C85.7562 16.696 86.05 17.072 86.4458 17.3485C86.841 17.6249 87.3305 17.7632 87.9144 17.7632C88.4942 17.7632 88.9856 17.6279 89.3888 17.3573ZM85.6567 18.3795C85.0462 18.0304 84.5796 17.5398 84.2571 16.908C83.9345 16.2766 83.7734 15.5423 83.7734 14.7048C83.7734 13.8257 83.9448 13.0571 84.2888 12.3981C84.6323 11.7397 85.1277 11.2311 85.7746 10.872C86.4215 10.513 87.1845 10.3335 88.064 10.3335C88.9048 10.3335 89.6288 10.5075 90.2355 10.8547C90.8419 11.2023 91.3048 11.6907 91.6233 12.3203C91.9422 12.9502 92.1014 13.6797 92.1014 14.5091C92.1014 15.4041 91.9278 16.1815 91.5802 16.8416C91.2326 17.5022 90.7376 18.0109 90.0943 18.3681C89.4511 18.7249 88.6958 18.9036 87.8281 18.9036C86.991 18.9036 86.2671 18.7289 85.6567 18.3795Z" fill="white"/>
<path d="M95.9599 14.392C96.3089 14.392 96.6182 14.3242 96.8869 14.1878C97.1556 14.0518 97.365 13.8594 97.5147 13.6116C97.6647 13.3639 97.7395 13.0772 97.7395 12.7506C97.7395 12.3326 97.6068 12.0263 97.3422 11.832C97.0771 11.6385 96.6912 11.5412 96.1844 11.5412H95.1419V14.392H95.9599ZM93.7021 10.4468H96.3112C97.2633 10.4468 97.9843 10.637 98.4738 11.017C98.9633 11.397 99.2081 11.9407 99.2081 12.647C99.2081 13.0886 99.1196 13.4775 98.943 13.8133C98.7665 14.1494 98.5475 14.423 98.2865 14.6342C98.0252 14.8454 97.7568 15.0028 97.4804 15.1064L100.043 18.7865H98.3732L96.2017 15.4809H95.1419V18.7865H93.7021V10.4468Z" fill="white"/>
<path d="M101.211 10.4468H106.124L105.986 11.6333H102.651V13.9312H105.796V15.043H102.651V17.5886H106.164L106.044 18.7865H101.211V10.4468Z" fill="white"/>
<path d="M112.883 10.4468H111.443V18.7865H112.883V10.4468Z" fill="white"/>
<path d="M116.7 11.6507H114.114L114.241 10.4468H120.732L120.599 11.6507H118.14V18.7865H116.7V11.6507Z" fill="white"/>
<path d="M130.716 17.3573C131.119 17.0864 131.421 16.7141 131.621 16.2397C131.82 15.7657 131.92 15.2231 131.92 14.6127C131.92 14.0137 131.831 13.4803 131.655 13.0114C131.478 12.5433 131.196 12.1699 130.808 11.8912C130.42 11.6133 129.921 11.474 129.311 11.474C128.727 11.474 128.232 11.6148 127.825 11.8971C127.418 12.1795 127.112 12.5577 126.909 13.0317C126.705 13.5061 126.604 14.0292 126.604 14.6012C126.604 15.2043 126.7 15.7439 126.892 16.2198C127.084 16.696 127.377 17.072 127.773 17.3485C128.169 17.6249 128.658 17.7632 129.242 17.7632C129.821 17.7632 130.313 17.6279 130.716 17.3573ZM126.984 18.3795C126.373 18.0304 125.907 17.5398 125.585 16.908C125.262 16.2766 125.101 15.5423 125.101 14.7048C125.101 13.8257 125.272 13.0571 125.616 12.3981C125.959 11.7397 126.455 11.2311 127.102 10.872C127.749 10.513 128.512 10.3335 129.392 10.3335C130.232 10.3335 130.956 10.5075 131.563 10.8547C132.169 11.2023 132.632 11.6907 132.951 12.3203C133.269 12.9502 133.429 13.6797 133.429 14.5091C133.429 15.4041 133.255 16.1815 132.908 16.8416C132.56 17.5022 132.065 18.0109 131.422 18.3681C130.779 18.7249 130.023 18.9036 129.155 18.9036C128.318 18.9036 127.595 18.7289 126.984 18.3795Z" fill="white"/>
<path d="M135.03 10.4468H136.683L140.807 16.9092C140.77 16.2951 140.756 15.7282 140.756 15.2099V10.4468H142.09V18.7865H140.49L136.303 12.2209C136.345 12.9658 136.366 13.626 136.366 14.2022V18.7865H135.03V10.4468Z" fill="white"/>
<path fill-rule="evenodd" clip-rule="evenodd" d="M37.5733 10.4849H22.2599C15.0462 10.4849 12.4077 13.1237 12.4077 20.337V35.6508C12.4077 42.8641 15.0462 45.5026 22.2599 45.5026H37.5685C44.7822 45.5026 47.4255 42.8641 47.4255 35.6508V20.337C47.4255 13.1237 44.787 10.4849 37.5733 10.4849Z" fill="#C9202F"/>
<path d="M27.7077 30.796H29.1121L28.4077 29.1579L27.7077 30.796ZM27.362 31.6217L26.9454 32.5749H25.997L28.014 27.9994H28.8335L30.8424 32.5749H29.8685L29.4572 31.6217H27.362ZM42.6235 32.572H43.5402V27.9994H42.6235V32.572ZM38.9753 30.6069H40.6647V29.7739H38.9753V28.8365H41.4277V28.0023H38.059V32.5745H41.5162V31.7408H38.9753V30.6069ZM35.3331 31.1473L34.2936 27.999H33.5358L32.4963 31.1473L31.4849 28.0012H30.4962L32.0919 32.5771H32.8609L33.9018 29.5715L34.9424 32.5771H35.7183L37.31 28.0012H36.3468L35.3331 31.1473ZM24.5978 30.6198C24.5978 31.364 24.2281 31.7618 23.5568 31.7618C22.8819 31.7618 22.5104 31.353 22.5104 30.5881V28.002H21.5815V30.6198C21.5815 31.9077 22.2969 32.6461 23.5443 32.6461C24.8038 32.6461 25.5263 31.8937 25.5263 30.5819V27.999H24.5978V30.6198ZM19.365 27.9994H20.2935V32.5775H19.365V30.7182H17.2673V32.5775H16.3384V27.9994H17.2673V29.8461H19.365V27.9994Z" fill="white"/>
<path d="M29.9294 22.1734C26.7155 22.1734 24.1006 19.5585 24.1006 16.3442H24.9241C24.9241 19.1044 27.1692 21.3496 29.9294 21.3496C32.6895 21.3496 34.9347 19.1044 34.9347 16.3442H35.7582C35.7582 19.5585 33.1433 22.1734 29.9294 22.1734Z" fill="white"/>
</svg>
