<svg width="166" height="56" viewBox="0 0 166 56" fill="none" xmlns="http://www.w3.org/2000/svg">
<path d="M152.237 0.354672H13.1796C12.6727 0.354672 12.1719 0.354672 11.6664 0.357436C11.2432 0.360201 10.8234 0.368232 10.3961 0.374991C9.46795 0.385914 8.54195 0.467571 7.62618 0.619254C6.7117 0.774239 5.82586 1.06643 4.99863 1.48594C4.17241 1.90901 3.41747 2.45873 2.7612 3.11518C2.10148 3.76979 1.55156 4.52642 1.13257 5.35598C0.712428 6.1839 0.421099 7.07109 0.268646 7.98691C0.114744 8.90157 0.0319284 9.82678 0.0209416 10.7542C0.00811399 11.178 0.00675935 11.6033 0 12.0271V43.9775C0.00675935 44.4067 0.00811399 44.8225 0.0209416 45.2518C0.0319318 46.1792 0.114748 47.1044 0.268646 48.019C0.420678 48.9354 0.712024 49.8231 1.13257 50.6513C1.55137 51.4782 2.10137 52.2318 2.7612 52.8827C3.41499 53.5421 4.17041 54.0922 4.99863 54.512C5.82585 54.9326 6.7116 55.2266 7.62618 55.384C8.54211 55.5344 9.46801 55.6161 10.3961 55.6283C10.8234 55.6377 11.2432 55.6431 11.6664 55.6431C12.1719 55.6459 12.6728 55.6459 13.1796 55.6459H152.237C152.734 55.6459 153.239 55.6459 153.736 55.6431C154.157 55.6431 154.589 55.6377 155.01 55.6283C155.936 55.6168 156.86 55.5351 157.774 55.384C158.692 55.2255 159.581 54.9316 160.412 54.512C161.24 54.0919 161.994 53.5419 162.648 52.8827C163.306 52.2292 163.857 51.4762 164.281 50.6513C164.698 49.8225 164.987 48.9348 165.137 48.019C165.291 47.1043 165.377 46.1793 165.393 45.2518C165.399 44.8225 165.399 44.4067 165.399 43.9775C165.409 43.4753 165.409 42.9759 165.409 42.4656V13.5363C165.409 13.0301 165.409 12.5279 165.399 12.0271C165.399 11.6033 165.399 11.178 165.393 10.7542C165.377 9.82664 165.291 8.90164 165.137 7.98685C164.986 7.07156 164.698 6.18444 164.281 5.35593C163.428 3.69315 162.075 2.33966 160.412 1.48582C159.581 1.06733 158.692 0.775218 157.774 0.61913C156.861 0.466779 155.936 0.385093 155.01 0.374798C154.589 0.368052 154.157 0.359952 153.736 0.357257C153.239 0.354492 152.734 0.354492 152.237 0.354492V0.354672Z" fill="#A6A6A6"/>
<path d="M11.6734 54.4362C11.2523 54.4362 10.8413 54.4308 10.4234 54.4214C9.55782 54.4101 8.69423 54.3348 7.83975 54.196C7.04299 54.0587 6.27115 53.8035 5.54967 53.4386C4.83482 53.0768 4.18281 52.6023 3.61863 52.0334C3.04628 51.4712 2.56978 50.8191 2.208 50.103C1.84223 49.3823 1.5891 48.6097 1.45742 47.8123C1.31521 46.9555 1.23828 46.089 1.22727 45.2205C1.2185 44.929 1.20703 43.9584 1.20703 43.9584V12.0269C1.20703 12.0269 1.21925 11.0712 1.22734 10.7904C1.23788 9.92328 1.31437 9.05821 1.45615 8.20269C1.58807 7.40306 1.8414 6.62829 2.20736 5.9052C2.56781 5.18961 3.04167 4.53706 3.61057 3.97284C4.17883 3.40326 4.83292 2.92635 5.549 2.5595C6.26881 2.1958 7.0392 1.94234 7.83435 1.80762C8.69163 1.66741 9.55822 1.59161 10.4268 1.58084L11.6741 1.56396H153.729L154.991 1.58152C155.852 1.59175 156.711 1.66688 157.56 1.80626C158.363 1.94268 159.142 2.1979 159.87 2.56355C161.304 3.30285 162.472 4.47251 163.208 5.90857C163.568 6.62668 163.817 7.39512 163.948 8.18784C164.091 9.05038 164.171 9.92225 164.188 10.7965C164.192 11.188 164.192 11.6084 164.192 12.0269C164.203 12.5453 164.203 13.0387 164.203 13.5361V42.4654C164.203 42.9676 164.203 43.4576 164.192 43.9516C164.192 44.4011 164.192 44.8129 164.187 45.2367C164.17 46.0953 164.091 46.9517 163.95 47.7988C163.821 48.602 163.57 49.3805 163.204 50.1072C162.84 50.8155 162.366 51.4619 161.8 52.0226C161.235 52.5946 160.582 53.0718 159.866 53.436C159.14 53.8037 158.362 54.0599 157.56 54.196C156.706 54.3355 155.842 54.4109 154.976 54.4214C154.571 54.4308 154.147 54.4362 153.736 54.4362L152.237 54.439L11.6734 54.4362Z" fill="black"/>
<path d="M58.4738 37.8689H51.931L50.3597 42.5084H47.5884L53.7857 25.3433H56.665L62.8623 42.5084H60.0437L58.4738 37.8689ZM52.6086 35.728H57.7949L55.2382 28.1983H55.1667L52.6086 35.728Z" fill="white"/>
<path d="M76.2466 36.2517C76.2466 40.1407 74.1651 42.6393 71.0239 42.6393C70.2282 42.6809 69.4368 42.4976 68.7404 42.1104C68.044 41.7232 67.4708 41.1477 67.0863 40.4498H67.0268V46.6485H64.458V29.9936H66.9445V32.0751H66.9918C67.394 31.3806 67.9769 30.808 68.6786 30.4185C69.3803 30.0289 70.1745 29.8368 70.9766 29.8627C74.1529 29.8627 76.2466 32.3734 76.2466 36.2517ZM73.6062 36.2517C73.6062 33.7179 72.2968 32.0522 70.299 32.0522C68.3363 32.0522 67.0161 33.753 67.0161 36.2517C67.0161 38.7733 68.3363 40.462 70.299 40.462C72.2968 40.462 73.6062 38.8083 73.6062 36.2517Z" fill="white"/>
<path d="M90.0205 36.2517C90.0205 40.1407 87.939 42.6393 84.7978 42.6393C84.0021 42.6809 83.2107 42.4976 82.5144 42.1104C81.818 41.7232 81.2447 41.1477 80.8602 40.4498H80.8008V46.6484H78.2319V29.9936H80.7184V32.0751H80.7657C81.1678 31.3806 81.7508 30.808 82.4525 30.4185C83.1542 30.0289 83.9483 29.8368 84.7505 29.8627C87.9268 29.8627 90.0205 32.3734 90.0205 36.2517ZM87.3801 36.2517C87.3801 33.7179 86.0707 32.0522 84.0729 32.0522C82.1102 32.0522 80.79 33.753 80.79 36.2517C80.79 38.7732 82.1102 40.4619 84.0729 40.4619C86.0707 40.4619 87.3801 38.8083 87.3801 36.2517H87.3801Z" fill="white"/>
<path d="M99.1242 37.7259C99.3146 39.4281 100.968 40.5457 103.228 40.5457C105.393 40.5457 106.951 39.428 106.951 37.8932C106.951 36.5608 106.011 35.7631 103.787 35.2164L101.562 34.6805C98.4102 33.9191 96.9469 32.445 96.9469 30.0531C96.9469 27.0914 99.5279 25.0571 103.193 25.0571C106.82 25.0571 109.306 27.0914 109.39 30.0531H106.797C106.642 28.34 105.226 27.306 103.156 27.306C101.087 27.306 99.6709 28.3522 99.6709 29.8749C99.6709 31.0884 100.575 31.8025 102.788 32.3492L104.679 32.8135C108.201 33.6464 109.664 35.0611 109.664 37.5719C109.664 40.7832 107.106 42.7946 103.038 42.7946C99.2308 42.7946 96.6607 40.8305 96.4946 37.7257L99.1242 37.7259Z" fill="white"/>
<path d="M115.208 27.0322V29.9939H117.588V32.0281H115.208V38.9274C115.208 39.9992 115.685 40.4987 116.731 40.4987C117.013 40.4937 117.295 40.4739 117.576 40.4392V42.4614C117.106 42.5492 116.628 42.589 116.149 42.5801C113.615 42.5801 112.627 41.6285 112.627 39.2014V32.0281H110.808V29.9939H112.627V27.0322H115.208Z" fill="white"/>
<path d="M118.966 36.2518C118.966 32.3142 121.285 29.8398 124.902 29.8398C128.53 29.8398 130.839 32.3141 130.839 36.2518C130.839 40.2002 128.542 42.6637 124.902 42.6637C121.262 42.6637 118.966 40.2002 118.966 36.2518ZM128.221 36.2518C128.221 33.5507 126.983 31.9565 124.902 31.9565C122.82 31.9565 121.584 33.5628 121.584 36.2518C121.584 38.9637 122.82 40.5458 124.902 40.5458C126.983 40.5458 128.221 38.9637 128.221 36.2518H128.221Z" fill="white"/>
<path d="M132.957 29.994H135.407V32.1241H135.466C135.632 31.4588 136.022 30.8709 136.57 30.4591C137.118 30.0473 137.791 29.8369 138.476 29.863C138.772 29.862 139.068 29.8941 139.356 29.9589V32.3617C138.983 32.2475 138.593 32.195 138.202 32.2064C137.829 32.1913 137.457 32.2571 137.112 32.3993C136.766 32.5415 136.456 32.7568 136.201 33.0303C135.947 33.3039 135.755 33.6292 135.638 33.984C135.522 34.3388 135.483 34.7146 135.525 35.0857V42.5087H132.957L132.957 29.994Z" fill="white"/>
<path d="M151.2 38.8328C150.855 41.1046 148.642 42.6637 145.811 42.6637C142.171 42.6637 139.911 40.2245 139.911 36.3112C139.911 32.3857 142.183 29.8398 145.703 29.8398C149.166 29.8398 151.343 32.2183 151.343 36.0129V36.893H142.504V37.0482C142.463 37.5088 142.521 37.9728 142.673 38.4094C142.826 38.8459 143.069 39.2451 143.388 39.5804C143.706 39.9157 144.092 40.1793 144.52 40.3539C144.948 40.5285 145.409 40.61 145.871 40.593C146.478 40.6499 147.087 40.5093 147.608 40.1921C148.129 39.875 148.533 39.3982 148.761 38.8328L151.2 38.8328ZM142.516 35.0976H148.773C148.796 34.6835 148.733 34.2691 148.589 33.8804C148.444 33.4917 148.221 33.1371 147.932 32.8388C147.644 32.5406 147.297 32.3051 146.914 32.1472C146.53 31.9894 146.118 31.9125 145.703 31.9214C145.285 31.9189 144.87 31.9992 144.483 32.1578C144.096 32.3165 143.744 32.5502 143.448 32.8455C143.152 33.1408 142.917 33.4918 142.757 33.8784C142.597 34.2649 142.515 34.6793 142.516 35.0977V35.0976Z" fill="white"/>
<path d="M52.2863 12.4229C52.8249 12.3843 53.3653 12.4656 53.8686 12.6611C54.3719 12.8566 54.8255 13.1614 55.1968 13.5535C55.5681 13.9455 55.8477 14.4151 56.0155 14.9283C56.1833 15.4415 56.2351 15.9855 56.1672 16.5212C56.1672 19.1561 54.7431 20.6708 52.2863 20.6708H49.3071V12.4229H52.2863ZM50.5882 19.5044H52.1432C52.5281 19.5274 52.9132 19.4643 53.2706 19.3197C53.6279 19.175 53.9486 18.9526 54.2091 18.6684C54.4697 18.3843 54.6636 18.0456 54.7767 17.6771C54.8899 17.3085 54.9194 16.9194 54.8632 16.538C54.9154 16.1581 54.8828 15.7714 54.7679 15.4055C54.653 15.0397 54.4586 14.7038 54.1987 14.4219C53.9387 14.14 53.6196 13.9191 53.2643 13.775C52.9089 13.6309 52.5261 13.5672 52.1432 13.5885H50.5882V19.5044Z" fill="white"/>
<path d="M57.6145 17.5557C57.5753 17.1467 57.6221 16.734 57.7518 16.3441C57.8816 15.9542 58.0913 15.5957 58.3677 15.2916C58.6441 14.9875 58.981 14.7446 59.3567 14.5783C59.7325 14.4121 60.1389 14.3262 60.5498 14.3262C60.9607 14.3262 61.3671 14.4121 61.7429 14.5783C62.1186 14.7446 62.4555 14.9875 62.7319 15.2916C63.0083 15.5957 63.218 15.9542 63.3477 16.3441C63.4775 16.734 63.5242 17.1467 63.4851 17.5557C63.525 17.9652 63.4788 18.3784 63.3494 18.769C63.22 19.1595 63.0104 19.5186 62.7339 19.8233C62.4575 20.128 62.1203 20.3715 61.7442 20.5381C61.368 20.7047 60.9612 20.7908 60.5498 20.7908C60.1384 20.7908 59.7315 20.7047 59.3554 20.5381C58.9792 20.3715 58.6421 20.128 58.3657 19.8233C58.0892 19.5186 57.8796 19.1595 57.7502 18.769C57.6208 18.3784 57.5746 17.9652 57.6145 17.5557ZM62.2216 17.5557C62.2216 16.2065 61.6155 15.4175 60.5518 15.4175C59.4841 15.4175 58.8834 16.2065 58.8834 17.5557C58.8834 18.9157 59.4841 19.6987 60.5518 19.6987C61.6155 19.6986 62.2216 18.9103 62.2216 17.5557H62.2216Z" fill="white"/>
<path d="M71.2884 20.6706H70.0141L68.7277 16.0864H68.6305L67.3494 20.6706H66.0873L64.3716 14.4463H65.6175L66.7325 19.1958H66.8243L68.104 14.4463H69.2825L70.5622 19.1958H70.6593L71.7689 14.4463H72.9973L71.2884 20.6706Z" fill="white"/>
<path d="M74.4404 14.4466H75.6229V15.4354H75.7147C75.8704 15.0802 76.1331 14.7825 76.466 14.5838C76.799 14.385 77.1857 14.295 77.5722 14.3264C77.875 14.3037 78.1791 14.3493 78.4619 14.46C78.7447 14.5708 78.999 14.7437 79.2059 14.966C79.4128 15.1884 79.5671 15.4544 79.6572 15.7444C79.7473 16.0345 79.771 16.341 79.7266 16.6415V20.6708H78.4982V16.95C78.4982 15.9497 78.0635 15.4523 77.1551 15.4523C76.9494 15.4427 76.7442 15.4777 76.5533 15.5548C76.3625 15.632 76.1906 15.7495 76.0494 15.8994C75.9083 16.0492 75.8012 16.2277 75.7355 16.4228C75.6698 16.6179 75.647 16.8249 75.6688 17.0296V20.6709H74.4404L74.4404 14.4466Z" fill="white"/>
<path d="M81.6841 12.0166H82.9125V20.6707H81.6841V12.0166Z" fill="white"/>
<path d="M84.6198 17.5558C84.5807 17.1467 84.6275 16.734 84.7573 16.3441C84.887 15.9542 85.0968 15.5957 85.3732 15.2916C85.6496 14.9875 85.9865 14.7446 86.3623 14.5783C86.7381 14.4121 87.1445 14.3262 87.5555 14.3262C87.9664 14.3262 88.3728 14.4121 88.7486 14.5783C89.1244 14.7446 89.4613 14.9875 89.7377 15.2916C90.0141 15.5957 90.2239 15.9542 90.3537 16.3441C90.4834 16.734 90.5302 17.1467 90.4911 17.5558C90.5309 17.9653 90.4847 18.3786 90.3553 18.7691C90.2259 19.1596 90.0162 19.5188 89.7397 19.8234C89.4632 20.1281 89.1261 20.3716 88.7499 20.5382C88.3737 20.7048 87.9669 20.7908 87.5555 20.7908C87.1441 20.7908 86.7372 20.7048 86.361 20.5382C85.9849 20.3716 85.6477 20.1281 85.3712 19.8234C85.0948 19.5188 84.8851 19.1596 84.7557 18.7691C84.6263 18.3786 84.58 17.9653 84.6198 17.5558ZM89.2269 17.5558C89.2269 16.2066 88.6208 15.4176 87.5572 15.4176C86.4894 15.4176 85.8887 16.2066 85.8887 17.5558C85.8887 18.9158 86.4894 19.6988 87.5572 19.6988C88.6209 19.6988 89.227 18.9104 89.227 17.5558H89.2269Z" fill="white"/>
<path d="M91.7847 18.9104C91.7847 17.79 92.6189 17.144 94.0997 17.0523L95.7857 16.9551V16.4178C95.7857 15.7604 95.3511 15.3892 94.5114 15.3892C93.8257 15.3892 93.3505 15.641 93.2142 16.081H92.0249C92.1505 15.0119 93.1562 14.3262 94.5681 14.3262C96.1286 14.3262 97.0087 15.103 97.0087 16.4178V20.6706H95.8262V19.7959H95.729C95.5318 20.1097 95.2547 20.3655 94.9263 20.5371C94.5978 20.7088 94.2297 20.7903 93.8594 20.7732C93.5981 20.8003 93.334 20.7725 93.0842 20.6913C92.8343 20.6102 92.6042 20.4776 92.4088 20.3021C92.2133 20.1266 92.0568 19.9121 91.9493 19.6724C91.8418 19.4326 91.7857 19.1731 91.7847 18.9104ZM95.7857 18.3785V17.8581L94.2658 17.9553C93.4086 18.0127 93.0198 18.3043 93.0198 18.853C93.0198 19.4132 93.5058 19.7392 94.174 19.7392C94.3698 19.759 94.5676 19.7392 94.7556 19.6811C94.9436 19.6229 95.1179 19.5275 95.2683 19.4005C95.4187 19.2736 95.542 19.1177 95.6309 18.9421C95.7198 18.7665 95.7724 18.5749 95.7857 18.3785Z" fill="white"/>
<path d="M98.623 17.5559C98.623 15.5891 99.6341 14.3431 101.207 14.3431C101.596 14.3252 101.982 14.4184 102.32 14.6118C102.658 14.8051 102.934 15.0907 103.115 15.4351H103.207V12.0166H104.436V20.6707H103.259V19.6873H103.161C102.966 20.0294 102.68 20.3114 102.335 20.5029C101.991 20.6943 101.601 20.7878 101.207 20.7733C99.6233 20.7733 98.623 19.5274 98.623 17.5559ZM99.892 17.5559C99.892 18.8761 100.514 19.6705 101.555 19.6705C102.59 19.6705 103.23 18.8646 103.23 17.5613C103.23 16.264 102.584 15.4467 101.555 15.4467C100.521 15.4467 99.8919 16.2465 99.8919 17.5559H99.892Z" fill="white"/>
<path d="M109.518 17.5557C109.479 17.1467 109.525 16.734 109.655 16.3441C109.785 15.9542 109.995 15.5957 110.271 15.2916C110.547 14.9875 110.884 14.7446 111.26 14.5783C111.636 14.4121 112.042 14.3262 112.453 14.3262C112.864 14.3262 113.27 14.4121 113.646 14.5783C114.022 14.7446 114.359 14.9875 114.635 15.2916C114.912 15.5957 115.121 15.9542 115.251 16.3441C115.381 16.734 115.428 17.1467 115.388 17.5557C115.428 17.9652 115.382 18.3784 115.253 18.769C115.123 19.1595 114.914 19.5186 114.637 19.8233C114.361 20.128 114.024 20.3715 113.648 20.5381C113.271 20.7047 112.865 20.7908 112.453 20.7908C112.042 20.7908 111.635 20.7047 111.259 20.5381C110.883 20.3715 110.545 20.128 110.269 19.8233C109.993 19.5186 109.783 19.1595 109.654 18.769C109.524 18.3784 109.478 17.9652 109.518 17.5557ZM114.125 17.5557C114.125 16.2065 113.519 15.4175 112.455 15.4175C111.387 15.4175 110.787 16.2065 110.787 17.5557C110.787 18.9157 111.387 19.6987 112.455 19.6987C113.519 19.6986 114.125 18.9103 114.125 17.5557Z" fill="white"/>
<path d="M117.037 14.4466H118.219V15.4354H118.311C118.467 15.0802 118.729 14.7825 119.062 14.5838C119.395 14.385 119.782 14.295 120.168 14.3264C120.471 14.3037 120.775 14.3493 121.058 14.46C121.341 14.5708 121.595 14.7437 121.802 14.966C122.009 15.1884 122.163 15.4544 122.253 15.7444C122.344 16.0345 122.367 16.341 122.323 16.6415V20.6708H121.094V16.95C121.094 15.9497 120.66 15.4523 119.751 15.4523C119.546 15.4427 119.34 15.4777 119.15 15.5548C118.959 15.632 118.787 15.7495 118.646 15.8994C118.504 16.0492 118.397 16.2277 118.332 16.4228C118.266 16.6179 118.243 16.8249 118.265 17.0296V20.6709H117.037V14.4466Z" fill="white"/>
<path d="M129.264 12.897V14.475H130.612V15.5097H129.264V18.7102C129.264 19.3622 129.532 19.6477 130.144 19.6477C130.3 19.6472 130.457 19.6378 130.612 19.6194V20.6426C130.392 20.6821 130.168 20.7031 129.944 20.7054C128.578 20.7054 128.034 20.2248 128.034 19.0248V15.5096H127.046V14.4749H128.034V12.897H129.264Z" fill="white"/>
<path d="M132.291 12.0166H133.508V15.4467H133.605C133.769 15.0882 134.038 14.7888 134.378 14.5893C134.718 14.3898 135.111 14.2998 135.503 14.3317C135.804 14.3153 136.106 14.3656 136.385 14.479C136.665 14.5924 136.916 14.7661 137.121 14.9877C137.325 15.2094 137.479 15.4734 137.57 15.7611C137.661 16.0488 137.687 16.3531 137.647 16.6521V20.6707H136.417V16.9551C136.417 15.961 135.954 15.4574 135.086 15.4574C134.875 15.4401 134.663 15.4692 134.464 15.5425C134.265 15.6158 134.085 15.7317 133.936 15.882C133.786 16.0323 133.672 16.2134 133.6 16.4127C133.528 16.6119 133.5 16.8244 133.519 17.0355V20.6707H132.291L132.291 12.0166Z" fill="white"/>
<path d="M144.809 18.9901C144.642 19.559 144.281 20.0511 143.788 20.3802C143.295 20.7094 142.702 20.8548 142.112 20.7909C141.702 20.8017 141.295 20.7231 140.918 20.5607C140.541 20.3982 140.204 20.1557 139.931 19.8501C139.657 19.5444 139.454 19.1829 139.334 18.7905C139.214 18.3982 139.181 17.9845 139.237 17.5781C139.182 17.1705 139.216 16.7559 139.336 16.3624C139.455 15.9689 139.658 15.6057 139.93 15.2974C140.202 14.989 140.537 14.7427 140.913 14.5752C141.288 14.4077 141.696 14.3228 142.107 14.3263C143.839 14.3263 144.884 15.5095 144.884 17.4641V17.8927H140.488V17.9615C140.469 18.1899 140.498 18.4199 140.573 18.6365C140.647 18.8532 140.767 19.0518 140.923 19.2197C141.079 19.3876 141.268 19.521 141.479 19.6114C141.69 19.7018 141.917 19.7472 142.146 19.7447C142.44 19.7799 142.738 19.727 143.001 19.5927C143.265 19.4583 143.483 19.2485 143.627 18.9901L144.809 18.9901ZM140.488 16.9842H143.632C143.648 16.7753 143.619 16.5655 143.549 16.3682C143.478 16.1709 143.367 15.9906 143.223 15.8387C143.079 15.6868 142.904 15.5669 142.711 15.4864C142.518 15.406 142.309 15.367 142.1 15.3718C141.888 15.3691 141.677 15.409 141.48 15.4891C141.283 15.5692 141.104 15.6879 140.954 15.8381C140.804 15.9884 140.685 16.1672 140.605 16.3641C140.525 16.5609 140.486 16.7717 140.488 16.9842H140.488Z" fill="white"/>
<path d="M34.2382 28.4161C34.2531 27.2623 34.5595 26.1311 35.1291 25.1276C35.6986 24.1241 36.5127 23.281 37.4956 22.6767C36.8712 21.785 36.0475 21.051 35.0898 20.5333C34.1321 20.0156 33.0669 19.7283 31.9787 19.6942C29.6576 19.4506 27.4073 21.0832 26.2244 21.0832C25.0187 21.0832 23.1976 19.7184 21.2365 19.7588C19.968 19.7997 18.7318 20.1686 17.6482 20.8294C16.5647 21.4902 15.6708 22.4204 15.0537 23.5294C12.3803 28.1579 14.3744 34.9602 16.9352 38.7015C18.2165 40.5335 19.7138 42.5799 21.6732 42.5073C23.5905 42.4278 24.3065 41.2847 26.6209 41.2847C28.9138 41.2847 29.5856 42.5073 31.5847 42.4612C33.642 42.4278 34.9383 40.621 36.1745 38.7717C37.0951 37.4663 37.8035 36.0236 38.2734 34.4969C37.0782 33.9914 36.0581 33.1452 35.3406 32.0638C34.623 30.9825 34.2396 29.7138 34.2382 28.4161Z" fill="white"/>
<path d="M30.4628 17.2332C31.5845 15.8866 32.1372 14.1557 32.0033 12.4082C30.2895 12.5882 28.7065 13.4073 27.5696 14.7022C27.0137 15.3349 26.5879 16.0708 26.3167 16.8681C26.0454 17.6654 25.9339 18.5083 25.9886 19.3486C26.8458 19.3575 27.6939 19.1717 28.4689 18.8052C29.2439 18.4388 29.9256 17.9013 30.4628 17.2332Z" fill="white"/>
</svg>
