<svg width="187" height="56" viewBox="0 0 187 56" fill="none" xmlns="http://www.w3.org/2000/svg">
<path fill-rule="evenodd" clip-rule="evenodd" d="M179.981 55.6457H7.25573C3.4301 55.6457 0.314453 52.5296 0.314453 48.7343V7.26589C0.314453 3.45687 3.4301 0.354492 7.25573 0.354492H179.981C183.803 0.354492 186.922 3.45687 186.922 7.26589V48.7343C186.922 52.5296 183.803 55.6457 179.981 55.6457Z" fill="black"/>
<path fill-rule="evenodd" clip-rule="evenodd" d="M179.981 1.46101C183.19 1.46101 185.816 4.07045 185.816 7.26589V48.7343C185.816 51.9298 183.207 54.5392 179.981 54.5392H7.25573C4.04702 54.5392 1.42078 51.9298 1.42078 48.7343V7.26589C1.42078 4.07045 4.02979 1.46101 7.25573 1.46101H179.981ZM179.981 0.354492H7.25573C3.4301 0.354492 0.314453 3.47066 0.314453 7.26589V48.7343C0.314453 52.5433 3.4301 55.6457 7.25573 55.6457H179.981C183.803 55.6457 186.922 52.5433 186.922 48.7343V7.26589C186.922 3.47066 183.803 0.354492 179.981 0.354492Z" fill="#A6A6A6"/>
<path d="M94.4974 30.4216C91.2463 30.4216 88.5965 32.8931 88.5965 36.3004C88.5965 39.6856 91.2463 42.1793 94.4974 42.1793C97.7485 42.1793 100.398 39.6856 100.398 36.3004C100.398 32.8931 97.7485 30.4216 94.4974 30.4216ZM94.4974 39.864C92.7157 39.864 91.1786 38.3946 91.1786 36.3004C91.1786 34.1842 92.7157 32.7369 94.4974 32.7369C96.2792 32.7369 97.8149 34.1842 97.8149 36.3004C97.8149 38.3932 96.2792 39.864 94.4974 39.864ZM81.6228 30.4216C78.3717 30.4216 75.7219 32.8931 75.7219 36.3004C75.7219 39.6856 78.3717 42.1793 81.6228 42.1793C84.874 42.1793 87.5238 39.6856 87.5238 36.3004C87.5252 32.8931 84.874 30.4216 81.6228 30.4216ZM81.6228 39.864C79.8411 39.864 78.3054 38.3946 78.3054 36.3004C78.3054 34.1842 79.8425 32.7369 81.6228 32.7369C83.4046 32.7369 84.9403 34.1842 84.9403 36.3004C84.9417 38.3932 83.4046 39.864 81.6228 39.864ZM66.3099 32.2255V34.7191H72.2786C72.1003 36.1221 71.6331 37.1464 70.9198 37.8596C70.0518 38.7277 68.693 39.6856 66.3099 39.6856C62.6358 39.6856 59.7635 36.7234 59.7635 33.0493C59.7635 29.3752 62.6358 26.413 66.3099 26.413C68.2921 26.413 69.7394 27.1926 70.8079 28.1947L72.5675 26.4351C71.076 25.01 69.0939 23.918 66.3099 23.918C61.2771 23.918 57.0459 28.015 57.0459 33.0479C57.0459 38.0808 61.2771 42.1779 66.3099 42.1779C69.0261 42.1779 71.076 41.2877 72.6795 39.6165C74.3272 37.9689 74.84 35.6521 74.84 33.7819C74.84 33.2027 74.7958 32.6678 74.7059 32.2227H66.3099V32.2255ZM128.938 34.1621C128.449 32.8475 126.956 30.4202 123.905 30.4202C120.877 30.4202 118.361 32.8033 118.361 36.2991C118.361 39.5944 120.855 42.1779 124.196 42.1779C126.89 42.1779 128.449 40.5302 129.095 39.5723L127.09 38.2356C126.423 39.2157 125.509 39.8612 124.196 39.8612C122.881 39.8612 121.947 39.2599 121.345 38.0794L129.206 34.8283L128.938 34.1621ZM120.921 36.1221C120.855 33.851 122.681 32.6927 123.994 32.6927C125.018 32.6927 125.886 33.2041 126.177 33.9395L120.921 36.1221ZM114.529 41.8226H117.113V24.5428H114.529V41.8226ZM110.298 31.7348H110.21C109.631 31.045 108.518 30.4202 107.115 30.4202C104.175 30.4202 101.481 33.0037 101.481 36.3212C101.481 39.6165 104.175 42.1779 107.115 42.1779C108.518 42.1779 109.631 41.5545 110.21 40.8412H110.298V41.6872C110.298 43.9362 109.096 45.1387 107.158 45.1387C105.576 45.1387 104.596 44.0025 104.195 43.046L101.947 43.9818C102.592 45.541 104.307 47.4554 107.158 47.4554C110.186 47.4554 112.748 45.6737 112.748 41.3319V30.7768H110.298V31.7348ZM107.337 39.864C105.556 39.864 104.064 38.3725 104.064 36.3226C104.064 34.2519 105.556 32.7369 107.337 32.7369C109.097 32.7369 110.477 34.2505 110.477 36.3226C110.477 38.3711 109.097 39.864 107.337 39.864ZM141.039 24.5428H134.859V41.8226H137.437V35.2762H141.037C143.896 35.2762 146.706 33.2069 146.706 29.9102C146.706 26.6134 143.897 24.5428 141.039 24.5428ZM141.105 32.871H137.437V26.9479H141.105C143.033 26.9479 144.128 28.5445 144.128 29.9102C144.128 31.2482 143.033 32.871 141.105 32.871ZM157.046 30.3898C155.178 30.3898 153.244 31.2123 152.444 33.0355L154.734 33.992C155.224 33.0355 156.135 32.7245 157.091 32.7245C158.425 32.7245 159.781 33.5248 159.803 34.9472V35.1255C159.336 34.8587 158.335 34.4579 157.113 34.4579C154.646 34.4579 152.133 35.8139 152.133 38.349C152.133 40.6615 154.157 42.1502 156.424 42.1502C158.158 42.1502 159.114 41.372 159.713 40.4611H159.802V41.795H162.291V35.1697C162.291 32.1011 160.002 30.3898 157.046 30.3898ZM156.733 39.8598C155.889 39.8598 154.71 39.4368 154.71 38.3932C154.71 37.0593 156.178 36.5479 157.444 36.5479C158.577 36.5479 159.111 36.7925 159.8 37.1257C159.601 38.7263 158.223 39.8598 156.733 39.8598ZM171.362 30.7672L168.405 38.2591H168.317L165.249 30.7672H162.471L167.073 41.2379L164.449 47.0629H167.139L174.232 30.7672H171.362ZM148.13 41.8226H150.709V24.5428H148.13V41.8226Z" fill="white"/>
<path d="M28.9505 27.2041L14.2334 42.8239C14.2348 42.8266 14.2348 42.8294 14.2362 42.8322C14.6868 44.5296 16.2363 45.7778 18.0748 45.7778C18.8101 45.7778 19.4999 45.5788 20.0915 45.2304L20.1385 45.2028L36.7038 35.6443L28.9505 27.2041Z" fill="#EB4335"/>
<path d="M43.8398 24.5447L43.8259 24.535L36.674 20.3882L28.6167 27.5581L36.7017 35.6417L43.8163 31.5377C45.0631 30.8645 45.909 29.5499 45.909 28.0336C45.909 26.5283 45.0741 25.2193 43.8398 24.5447Z" fill="#FABC13"/>
<path d="M14.2341 13.1782C14.1456 13.5044 14.0986 13.8459 14.0986 14.2011V41.8011C14.0986 42.1564 14.1442 42.4992 14.2341 42.824L29.4572 27.6037L14.2341 13.1782Z" fill="#547DBF"/>
<path d="M29.0584 28.0003L36.6761 20.3853L20.1288 10.7922C19.5275 10.4315 18.8267 10.2241 18.0748 10.2241C16.2363 10.2241 14.6854 11.4751 14.2334 13.1739V13.1781L29.0584 28.0003Z" fill="#30A851"/>
<path d="M65.7999 13.8889H61.7802V14.8855H64.7922C64.7107 15.6955 64.3858 16.3327 63.8426 16.7958C63.298 17.2589 62.6027 17.4911 61.7802 17.4911C60.8762 17.4911 60.1118 17.1787 59.487 16.5525C58.8733 15.9153 58.5595 15.1288 58.5595 14.1778C58.5595 13.2281 58.8733 12.4402 59.487 11.803C60.1118 11.1782 60.8762 10.8658 61.7802 10.8658C62.2433 10.8658 62.6843 10.946 63.0893 11.1202C63.4943 11.2943 63.8191 11.5376 64.0734 11.85L64.8379 11.0856C64.4909 10.6917 64.05 10.3903 63.5067 10.1705C62.9621 9.95076 62.394 9.8457 61.7802 9.8457C60.5749 9.8457 59.5562 10.2632 58.7226 11.0967C57.8877 11.9316 57.4717 12.9614 57.4717 14.1778C57.4717 15.3942 57.8877 16.4254 58.7226 17.2589C59.5562 18.0938 60.5749 18.5098 61.7802 18.5098C63.0423 18.5098 64.05 18.1048 64.8268 17.2824C65.5096 16.5995 65.858 15.672 65.858 14.5137C65.858 14.3174 65.8345 14.1087 65.7999 13.8889Z" fill="white"/>
<path d="M67.3868 10.0309V18.3246H72.229V17.3059H68.4526V14.6768H71.8571V13.6802H68.4526V11.0511H72.229V10.0309H67.3868Z" fill="white"/>
<path d="M79.038 11.0511V10.0309H73.3389V11.0511H75.6556V18.3246H76.7213V11.0511H79.038Z" fill="white"/>
<path d="M84.2284 10.0309H83.1627V18.3246H84.2284V10.0309Z" fill="white"/>
<path d="M91.2712 11.0511V10.0309H85.572V11.0511H87.8887V18.3246H88.9545V11.0511H91.2712Z" fill="white"/>
<path d="M102.056 11.1091C101.233 10.2632 100.226 9.8457 99.0203 9.8457C97.8163 9.8457 96.8072 10.2632 95.9848 11.0967C95.1623 11.9191 94.7573 12.9503 94.7573 14.1778C94.7573 15.4066 95.1623 16.4364 95.9848 17.2589C96.8072 18.0938 97.8163 18.5098 99.0203 18.5098C100.213 18.5098 101.233 18.0938 102.056 17.2589C102.878 16.4364 103.283 15.4066 103.283 14.1778C103.283 12.9614 102.878 11.9316 102.056 11.1091ZM96.7506 11.803C97.3643 11.1782 98.1163 10.8658 99.0203 10.8658C99.9243 10.8658 100.676 11.1782 101.279 11.803C101.893 12.4181 102.194 13.2171 102.194 14.1778C102.194 15.1398 101.893 15.9388 101.279 16.5525C100.676 17.1787 99.9243 17.4911 99.0203 17.4911C98.1163 17.4911 97.3643 17.1787 96.7506 16.5525C96.1479 15.9277 95.8466 15.1398 95.8466 14.1778C95.8466 13.2171 96.1479 12.4292 96.7506 11.803Z" fill="white"/>
<path d="M105.843 13.159L105.798 11.5597H105.843L110.061 18.3246H111.172V10.0309H110.106V14.8855L110.153 16.4834H110.106L106.075 10.0309H104.779V18.3246H105.843V13.159Z" fill="white"/>
</svg>
